<?xml version="1.0" encoding="UTF-8"?>
<svg id="Layer_2" xmlns="http://www.w3.org/2000/svg" viewBox="0 0 438.72 502.12">
  <defs>
    <style>
      .cls-1 {
        fill: #201b21;
      }

      .cls-2 {
        fill: #746460;
      }

      .cls-2, .cls-3, .cls-4, .cls-5, .cls-6, .cls-7, .cls-8, .cls-9, .cls-10, .cls-11, .cls-12, .cls-13, .cls-14, .cls-15, .cls-16, .cls-17, .cls-18, .cls-19, .cls-20, .cls-21, .cls-22, .cls-23, .cls-24 {
        stroke: #000;
        stroke-miterlimit: 10;
      }

      .cls-3 {
        fill: #9a8381;
      }

      .cls-4 {
        fill: #9b8580;
      }

      .cls-5 {
        fill: #5b3716;
      }

      .cls-6 {
        fill: #4e4944;
      }

      .cls-7 {
        fill: #978583;
      }

      .cls-9 {
        fill: #7a484b;
      }

      .cls-10 {
        fill: #3d2426;
      }

      .cls-11 {
        fill: #a6a7ac;
      }

      .cls-25 {
        fill: #1f1a16;
      }

      .cls-12 {
        fill: #c3b6b3;
      }

      .cls-13 {
        fill: #272120;
      }

      .cls-26, .cls-14 {
        fill: #645a5b;
      }

      .cls-15 {
        fill: #ca9891;
      }

      .cls-27 {
        fill: #0f1119;
      }

      .cls-16 {
        fill: #413e3e;
      }

      .cls-17 {
        fill: #cdcbce;
      }

      .cls-18 {
        fill: #ad8e8a;
      }

      .cls-19 {
        fill: #e69cab;
      }

      .cls-20 {
        fill: #575352;
      }

      .cls-21 {
        fill: #d5d4da;
      }

      .cls-28 {
        fill: #2f2422;
      }

      .cls-22 {
        fill: #e9e9f0;
      }

      .cls-23 {
        fill: #24242d;
      }

      .cls-24 {
        fill: #514540;
      }
    </style>
  </defs>
  <path class="cls-20" d="M350.96,179.13s43.51,44.61,45.49,142.39c0,0,.74,17.73-4.91,36.96-5.65,19.23-32.05,38.93-32.05,38.93l.66-15.32s7.92-2.92,7.92-17.51c0,0,28.8-71.87-18.27-157.79-47.07-85.93,0,0,0,0l1.16-27.64"/>
  <path class="cls-19" d="M159.79,451.98s18.92,30.51,103.04,3.29l3.61-4.94v-13.05s-36.47,7.42-2.4-48.7l44.1-61.67s-50.18,74.02-158.8,35.4c-108.62-38.62,0,0,0,0,0,0-14.78-10.89-26.72-18.55s0,0,0,0c0,0,72.54,60.93,34.92,87.93l2.26,20.28Z"/>
  <path class="cls-19" d="M86.12,301.5s31.06,47.74,67.4,62.7c36.34,14.96,93.35,9.85,109.73,0,16.37-9.85,60.92-45.48,62.74-67.07,1.81-21.59-239.87,4.37-239.87,4.37Z"/>
  <path class="cls-2" d="M389.19,409.81s11.88,17.51,12.54,20.43c.66,2.92,13.2,16.05,11.88,19.7s-3.2,5.89-12.16,5.5c-8.96-.39-15.56-11.34-15.56-11.34,0,0,.66,11.68-5.94,15.32-6.6,3.65-13.86-13.13-13.86-13.13,0,0-2.63,11.98-8.58,13.65-5.94,1.67-6.21-2.34-6.21-2.34l-2.37-8.39v-5.88s2.76-12.88,2.37-17.73l2.91-6.92s32.34-2.31,34.98-8.88Z"/>
  <path class="cls-16" d="M391.54,358.47s3.59,36.01-3.67,44.04l1.32,7.3s.66,6.08-34.98,8.88c0,0,7.92-15.45,5.28-21.28,0,0,27.8-21.67,32.05-38.93Z"/>
  <path class="cls-9" d="M162.92,391.82s50.65,68.12,99.19,0c0,0-28.66,48.12,4.33,45.46v13.05l-3.61,4.94s-77.68,30.13-103.04-3.29l-2.26-20.28s19.35-6.05,5.39-39.88Z"/>
  <path class="cls-16" d="M46.88,358.47s-7.48,34.55-1.54,46.96l-3.96,4.38s16.5,18.24,31.02,16.05l1.32-3.65-6.89-30.39s-19.06-18.28-19.95-33.35Z"/>
  <path class="cls-20" d="M54.29,240.95s-43.2,91.3,12.53,150.88c5.3,5.66,7.22,7.92,7.33,8.32.04.13-.13.06-.44-.16-1.81-1.3-8.55-7.73-8.55-7.73,0,0-4.76-21.66-.41-26.87,0,0-10.18-13.96-5.56-30.01,0,0-11.42-23.93,2.54-72.53,13.96-48.6,0,0,0,0l-7.44-21.9"/>
  <path class="cls-4" d="M68.99,276.37s-9.34,43.98,0,50.04c0,0-9.14,4.59-9.8,8.97,0,0-14.06-23.2,2.54-72.53,16.6-49.33,0,0,0,0l7.26,13.52"/>
  <path class="cls-10" d="M266.44,437.28v13.05l-3.61,4.94s-79,34.51-103.04-3.29l-2.26-20.28s5.75-4.13,9.8-13.01c0,0,53.45,39.01,82.87,11.42,0,0,7,9.84,16.23,7.18Z"/>
  <path class="cls-20" d="M266.44,450.33c-.97.33,0-13.05,0-13.05,0,0,1.56-49.09,41.7-66.38,40.13-17.28,52.67-17.28,52.01,11.17-.66,28.46-1.37,25.29-1.37,25.29l-7.48,18.23s-.39,16.23-2.37,17.73-42.88-6.47-82.49,7Z"/>
  <path class="cls-4" d="M162.88,455.7s-3.72-7.11-18.11-7.93-38.42-1.56-44.07-2.29c-5.65-.73-21.2-4.46-27.56,1.42-6.36,5.88,0,0,0,0,0,0,2.83,9.5-5.65,21.19-8.48,11.69-10.6,18.98-2.83,20.44s19.08-2.92,26.14-7.3c7.07-4.38,12.01,10.95,12.01,10.95,0,0,14.13,13.13,21.9-8.76s24.47,6.72,24.47,6.72c0,0,27.82,11.53,24.28-8.18-3.53-19.7-10.6-26.27-10.6-26.27Z"/>
  <path class="cls-4" d="M265.11,452.13s3.47-7.11,16.92-7.93,35.88-1.56,41.16-2.29c5.28-.73,19.8-4.46,25.74,1.42,5.94,5.88,0,0,0,0,0,0-2.64,9.5,5.28,21.19,7.92,11.69,9.9,18.98,2.64,20.44-7.26,1.46-17.82-2.92-24.42-7.3-6.6-4.38-11.22,10.95-11.22,10.95,0,0-13.2,13.13-20.46-8.76s-22.86,6.72-22.86,6.72c0,0-25.98,11.53-22.68-8.18,3.3-19.7,9.9-26.27,9.9-26.27Z"/>
  <path class="cls-4" d="M345.97,235.41s15.28,24.89,16.71,73.01c0,0,12.65,20.39,4.07,40.82,0,0,2.64,6.57,1.32,15.32-1.32,8.76,0,0,0,0,0,0,31.44-69.68-18.27-157.79-49.71-88.12,0,0,0,0l-3.83,28.64"/>
  <path class="cls-20" d="M159.79,451.98c.19.06-2.26-20.28-2.26-20.28,0,0,8.16-28.16-44.92-70.45,0,0-51.21-27.5-47.86,4.14,0,0-7.87,15.59,8.96,56.82,0,0-1.3,14.21,2.81,17.87l-3.38,6.82s56.89-4.19,86.64,5.08Z"/>
  <path class="cls-2" d="M41.37,409.81s-8.25,14.96-12.21,28.82c0,0-14.52,13.86-2.64,16.78,11.88,2.92,18.48-8.03,18.48-8.03,0,0-5.94,7.22,0,12.73,5.94,5.51,17.91-11.35,17.91-11.35,0,0,3.91,11.7,6.2,12.46l2.29.76s4.16-14.1,1.75-15.08l3.38-6.82s-3.14-8.02-2.81-17.87c0,0-11.55,8.39-32.34-12.4Z"/>
  <path class="cls-13" d="M64.75,365.39s-11.17-17.24-5.56-30.01c5.61-12.77,21.25-8.97,21.25-8.97,0,0,59.16,19.34,82.48,65.42,0,0,16.72,28.57-5.39,39.88,0,0,3.66-38.82-52.45-73.22,0,0-40.38-22.54-40.33,6.92Z"/>
  <path class="cls-8" d="M68.99,311.26s13.91,17.65,21.03,18.88c0,0-13.54-5.04-21.03-3.73,0,0-6.37-8.98,0-15.15Z"/>
  <path class="cls-18" d="M68.99,276.37h0s36.99,48.89,39.83,53.77c2.84,4.88,35.94,31.76,40.51,32.18l-12.78-3.46s-39.13-28.49-46.53-28.72c0,0-20.14-13.45-21.03-18.88,0,0-6.37,4.35,0,15.15,0,0-9.67-5.79,0-50.04"/>
  <path class="cls-4" d="M250.21,430.1s4.69,10.21,16.23,7.18c0,0,3.87-50.19,41.7-66.38,37.82-16.19,53.05-17.27,52.03,9.54-1.01,26.81-.02,1.63-.02,1.63,0,0,8.91-2.55,7.92-17.51,0,0,1.65-14.23-1.32-15.32-2.97-1.09-.99-23.72-51.15,6.93,0,0-32.51,22.62-37.71,32.84,0,0-1.03-10.56,42.1-38.84,0,0,25.36-19.23,40.18-13.18s2.51-28.57,2.51-28.57c0,0-66.33,26.83-73.2,44.59,0,0-45.92,53.98-39.27,77.1Z"/>
  <path class="cls-4" d="M64.75,365.39s-9.01-29.94,13.34-24.32c22.35,5.62,55.35,21.67,65.25,38.46,9.9,16.78,17.82,48.16,14.19,52.17,0,0,9.38-8.15,9.8-13.01.43-4.87,11.38-29.36-49.53-72.93-60.92-43.58-61.99-3.67-59.8-2.1,2.18,1.57-1.88,9.06,6.75,21.73Z"/>
  <path class="cls-13" d="M360.17,380.45s8.48-40.05-52.03-9.54c0,0-35.42,14.68-41.7,66.38,0,0,12.45-43.08,41.7-61.73,29.24-18.65,49.75-9.51,52.03,4.89Z"/>
  <path class="cls-13" d="M277.89,389.01s68.73-70.78,88.86-39.77c0,0,.38-11.01-6.58-12.25-6.95-1.24-16-4.51-41.84,14.27s-23.37,13.67-40.44,37.75Z"/>
  <path class="cls-12" d="M362.68,308.42s15.62,18.57,4.07,40.82c0,0,.11-9.65-4.07-11.21-4.18-1.56-2.51-1.05-2.51-1.05,0,0,14.61,9.06,2.51-28.57Z"/>
  <path class="cls-18" d="M345.97,235.41s17.59,27.45,16.71,73.01c0,0-53.02,23.67-70.51,40.82l14.16-20.41s18.84-22.15,19.66-31.7c.82-9.55,0,0,0,0,0,0,19.34-46.77,19.98-61.73"/>
  <path class="cls-4" d="M75.71,92.29c.5-2.73,35.53-75.7,100.47-78.62,64.94-2.92,96.32,10.22,134.27,43.05l17.91,54.59s10.19,24.37,16.21,25.39,33.75,93.69-12.22,157.91c-45.97,64.21-73.71,55.82-73.71,55.82,0,0-115.7,55.93-177.88-73.64,0,0-39.56-55.15-15.48-113.52l10.22-29.88.23-41.1Z"/>
  <path class="cls-14" d="M75.48,78.61c-.73,0-39.4,2.19-39.4,2.19,0,0-19.7,7.3-17.51,24.81,2.19,17.51,16.05,25.54,16.05,25.54,0,0,35.03,9.49,39.4,3.65s1.46-1.42,1.46-1.42v-54.77Z"/>
  <path class="cls-24" d="M87.42,85.49s7.83-10.79,13.27,2.48c5.44,13.27,10.61,40.59,0,50.28-10.61,9.69-7.41-10.97-14.49-15.24-7.07-4.26-2.17-36.48,1.22-37.52Z"/>
  <path class="cls-1" d="M87.89,101.96c.33-.65,5.11-15.32,13.13,2.19,0,0,3.65,21.89-2.92,22.62s-12.4-20.43-10.22-24.81Z"/>
  <path class="cls-27" d="M283.45,85.18c.12-.72,3.65-21.89,13.86-8.76,0,0,2.92,20.43-2.92,26.27s-11.68-13.13-10.95-17.51Z"/>
  <path class="cls-6" d="M135.32,278.19s9.49,18.61,46.7,22.26c0,0,32.67-8.63,53.55-5.41,20.88,3.22,41.31-40.15,41.31-40.15l-69.53-20.87-72.03,44.17Z"/>
  <path class="cls-20" d="M310.45,171.14s16.05,29.86,8.03,54.62c-8.03,24.76-41.59,29.13-41.59,29.13l-48.16-5.1s-19.69-3.64-36.85,5.1c-17.15,8.74-37.58,23.3-65.31,23.3s-37.94-27.67-37.94-27.67c0,0-8.76-34.23,1.46-50.98,10.22-16.75,33.57-69.18,37.21-73.55,3.65-4.37,15.01-24.03,39.61-20.39,24.6,3.64,56.71-8.01,56.71-8.01,0,0,35.68-5.08,59.07,33.15,23.39,38.22,27.77,40.41,27.77,40.41Z"/>
  <path class="cls-23" d="M256.09,130.8c1.89,3.99-8.4-13.51-24.45-11.32-16.05,2.19-16.74,15.18-16.74,15.18,0,0-1.5,11.82,9.44,12.55s18.97-5.11,15.32-10.22c-3.65-5.11-7.68-10.89-4.21-10.55s17.35-2.56,20.63,4.36Z"/>
  <path class="cls-23" d="M165.97,139.91s8.36,8.06,4.18,13.88c-4.18,5.82-7.1,9.47-18.77,7.28-11.68-2.19-1.46-16.78-1.46-16.78,0,0-8.76,1.46-14.59,12.4,0,0,10.95-24.81,30.65-16.78Z"/>
  <path class="cls-28" d="M101.02,104.15s-2.19-13.86-10.95-13.86-2.4,14.59-2.66,13.86,4.85-18.24,13.6,0Z"/>
  <path class="cls-17" d="M279.8,75.69s-2.19-28.08,18.24-12.58c0,0,6.03,3.28,3.02,15.23-3.02,11.94-3.07,6.18-3.07,6.18l-.67-8.1s-9.49-13.13-13.86,8.76c0,0-2.19-5.84-3.65-9.49Z"/>
  <path class="cls-25" d="M297.31,66.95s-7.83-2.91-11.94,12.16c0,0,3.18-12.94,11.94-2.05l.43,5.56s3.21-13.34-.43-15.67Z"/>
  <path class="cls-24" d="M279.8,75.69s-3.45,20.33,5.57,31.69c9.02,11.36,17.05,10.63,18.51,6.26,1.46-4.38,7.13-21.89-2.27-37.94l-2.55,10.22s-6.12,40.86-15.61-.73l-3.65-9.49Z"/>
  <path class="cls-14" d="M310.45,56.72c1.46,0,35.76,4.38,35.76,4.38,0,0,16.12-5.21,20.1,13.08,0,0,8.36,3.7,6.17,10.27-2.19,6.57-3.02,19.69-11.36,26.63-8.34,6.94-32.76.23-32.76.23l-17.91-54.59Z"/>
  <path class="cls-7" d="M327.38,82.37s10.85-1.68,15.57-8.19c4.71-6.51,17.91-13.92,23.35,0,5.44,13.92,1.67,26.71,1.67,26.71,0,0-3.46,22.68-39.61,10.42l-8.48-25.84,7.5-3.1Z"/>
  <path class="cls-3" d="M65.66,106.28s-12.75-8.34-18.25-13.99-19.55-9.24-24.56,8.61c-5.02,17.85,13.31,30.66,13.31,30.66,0,0,37.86,9.17,39.32,1.83,1.46-7.34-4.32-28.63-9.82-27.11Z"/>
  <path class="cls-15" d="M57.5,135.52s-36.01,45.98-14.12,113.85c21.89,67.86,123.56,113.07,123.56,113.07,0,0,52.13,24.28,132.12-20.68,79.98-44.96,70.19-180.8,70.19-180.8l-13.1-46.01-27.78-3.64s8,24.37,16.21,25.39,54.89,151.34-85.93,213.73C117.81,412.82,50.7,230.41,57.62,208.15c0,0,3.27-23.73,16.41-73.35l-16.53.72Z"/>
  <path class="cls-21" d="M102.03,107.66c-.28-.58,1.57-9.25,1.01-12.95s-8.43-26.31-18-4.42l.38,3.97s9.97-14.48,16.07,13.39h.54Z"/>
  <path class="cls-11" d="M240.51,138.95s4.27,14.82-18.35,38.17c-22.62,23.35-55.56,2.01-66.82-15.41,0,0,11.83,3.51,15.97-11.7,4.14-15.21,7.77-27.11,18.73-24.81,10.96,2.3,14.18.87,17.31-.97,3.13-1.84,9.9,3.66,9.9,3.66,0,0-6.04,13.01,1.26,17.25,7.3,4.25,23.57.14,22-6.2Z"/>
  <path class="cls-22" d="M291.48,74.96s-3.65-2.19-2.92,1.46,3.65,6.57,4.38,5.84.73-6.57-1.46-7.3Z"/>
  <path class="cls-22" d="M94.72,98.38s-2.46,1.39-1,4.31,3.65-2.19,3.65-2.92-1.65-2.05-2.65-1.39Z"/>
  <path class="cls-26" d="M83.73,77.24l-8.25,1.38s-1.09,56.64,0,54.77,8.25-56.15,8.25-56.15Z"/>
  <g>
    <path class="cls-5" d="M128.9,24.02s-5.59-4.22,6.58-14.86,82.06-10.92,98.93-3.85c16.86,7.07,23.25,14.66,23.25,14.66,0,0-12.71,29.62-34.36,7.37-21.65-22.26-47.09,12.25-47.09,12.25,0,0-28.95,3.44-27.29-19.54,0,0,3.86-6.2-18.77,7.3l-1.25-3.32Z"/>
    <path class="cls-5" d="M286.81,190.16s-28.72,14.49-26.65-9.85c2.07-24.34-7.14-25.03-11.29-13.37-4.15,11.66,17.2,38.97-7.34,32.98-24.54-6-26.29,21.24-9.72,18.93,16.56-2.31,27.14-2.55,31.34,8.52s30,.92,23.67-13.71c-6.33-14.63,14.26-11.8,14.26-11.8,0,0,25.64-22.76-14.26-11.7Z"/>
    <path class="cls-5" d="M116.55,467.56c-2.6-25.59-39.08,15.47-44.97,5.95-5.89-9.52-15.07,9.29-15.07,9.29,0,0,.05,12.53,19.22,7.08s12.58-5.14,30.48,7.84c17.91,12.97,24.03-15.69,24.03-15.69,0,0,4.56-4.58,20.44,10.95,15.87,15.53,34.04,6.56,24.26-14.13-9.78-20.69-28.11-8.39-32.51-6.88-4.4,1.52-24.4,10.12-25.88-4.4Z"/>
    <path class="cls-5" d="M252.94,477.93c2.22,24.68,28.61,15.29,28.61,15.29,0,0,10.33-26.22,12.48-15.29,2.15,10.93,22.05,28.21,27.58,21.03,5.54-7.18,19.4-15.24,30.31-5.73,10.91,9.5,14.03-15.29,14.03-15.29l-5.64-8.1s-15.19-10.83-20.13,1.55c-4.95,12.37-21.27-4.57-34.99-10.33-13.72-5.76-21.21,11.82-28.57,10.33-7.36-1.49-25.19-10.22-23.68,6.55Z"/>
    <path class="cls-5" d="M404.98,431.04s12.26,6.29,13.13,19.7c.88,13.41-30.06,7.02-30.65-5.84,0,0-2.33,36.21-21.89,2.19,0,0-17.66,35.4-18.97-2.96,0,0,3.43-10.6,26.96-6.6,23.53,4,17.68-7.5,17.68-7.5,0,0,12.12-12.4,13.73,1.01Z"/>
    <path class="cls-5" d="M25.05,441.63s2.36-16.86,13.21-4.1c10.86,12.76,15.66-6.14,26.83-.34l11.17,5.8-5.5,21.98s-1.73-8.6-9.19-7.26c-7.46,1.33-20.58,20.56-22.23,0,0,0-33.45,13.79-21.12-7.76,12.33-21.55,6.83-8.33,6.83-8.33Z"/>
  </g>
  <g>
    <path class="cls-5" d="M376.13,223.48s13.51,4.77,21.83,25.48c8.32,20.71,10.82,49.89,4.16,64.49-6.67,14.59-27.3,46.8-23.75,15.74,3.55-31.06-5.52-34.95-19.6-28.27-14.08,6.69-6.24-26.57,11.5-30.01,17.74-3.44-20.23-43.27,5.86-47.43Z"/>
    <path class="cls-5" d="M64.12,359.97s22.24-22.4,27.63-7.46-2.32,30.01,13.72,25.03c16.04-4.98,9.42,46.33-19.42,22.5-28.84-23.83-21.5-13.19-21.5-13.19l-.42-26.87Z"/>
    <path class="cls-5" d="M50.65,203.78c3.55-54.12,20.59,24.93,20.59,24.93,0,0,9.76,41.26,33.1,22.5,23.34-18.76,1.3,33.55-11.03,26-12.33-7.55,4.85,41.82,21.3,43.04,0,0-33.45,5.6-47.42-48.77-13.97-54.36-18.44-38.74-16.54-67.71Z"/>
    <path class="cls-5" d="M337.02,61.06c2.81-35.1,41.36,24.9,32.36,27.73-9,2.83-34.06-6.48-32.36-27.73Z"/>
  </g>
</svg>