<?xml version="1.0" encoding="UTF-8"?>
<svg id="Layer_1" xmlns="http://www.w3.org/2000/svg" viewBox="0 0 438.72 502.12">
  <defs>
    <style>
      .cls-1 {
        fill: #201b21;
      }

      .cls-2 {
        fill: #746460;
      }

      .cls-2, .cls-3, .cls-4, .cls-5, .cls-6, .cls-7, .cls-8, .cls-9, .cls-10, .cls-11, .cls-12, .cls-13, .cls-14, .cls-15, .cls-16, .cls-17, .cls-18, .cls-19, .cls-20, .cls-21, .cls-22, .cls-23, .cls-24, .cls-25, .cls-26 {
        stroke: #000;
        stroke-miterlimit: 10;
      }

      .cls-3 {
        fill: #9a8381;
      }

      .cls-4 {
        fill: #9b8580;
      }

      .cls-5 {
        fill: #683f47;
      }

      .cls-6 {
        fill: #5b3716;
      }

      .cls-7 {
        fill: #4e4944;
      }

      .cls-8 {
        fill: #978583;
      }

      .cls-10 {
        fill: #7a484b;
      }

      .cls-11 {
        fill: #3d2426;
      }

      .cls-12 {
        fill: #a6a7ac;
      }

      .cls-27 {
        fill: #1f1a16;
      }

      .cls-13 {
        fill: #c3b6b3;
      }

      .cls-14 {
        fill: #272120;
      }

      .cls-28, .cls-15 {
        fill: #645a5b;
      }

      .cls-16 {
        fill: #ca9891;
      }

      .cls-29 {
        fill: #0f1119;
      }

      .cls-17 {
        fill: #413e3e;
      }

      .cls-18 {
        fill: #cdcbce;
      }

      .cls-19 {
        fill: #ad8e8a;
      }

      .cls-20 {
        fill: #e69cab;
      }

      .cls-21 {
        fill: #575352;
      }

      .cls-22 {
        fill: #d5d4da;
      }

      .cls-30 {
        fill: #2f2422;
      }

      .cls-23 {
        fill: #e9e9f0;
      }

      .cls-24 {
        fill: #24242d;
      }

      .cls-25 {
        fill: #380f17;
      }

      .cls-26 {
        fill: #514540;
      }
    </style>
  </defs>
  <path class="cls-21" d="M368.52,179.59s48.33,44.81,50.53,143.05c0,0,.82,17.82-5.45,37.13-6.28,19.32-35.6,39.11-35.6,39.11l.73-15.4s8.8-2.93,8.8-17.59c0,0,31.99-72.2-20.29-158.53s0,0,0,0l1.29-27.77"/>
  <path class="cls-20" d="M156.18,453.71s21.02,30.65,114.45,3.3l4.01-4.96v-13.11s-40.51,7.46-2.67-48.93l48.98-61.95s-55.74,74.36-176.39,35.57c-120.65-38.8,0,0,0,0,0,0-16.42-10.94-29.68-18.64s0,0,0,0c0,0,80.57,61.21,38.79,88.34l2.51,20.38Z"/>
  <path class="cls-20" d="M74.35,302.53s34.5,47.97,74.87,62.99c40.37,15.03,103.7,9.9,121.88,0,18.19-9.9,67.67-45.69,69.69-67.38,2.02-21.69-266.44,4.39-266.44,4.39Z"/>
  <path class="cls-2" d="M410.98,411.34s13.2,17.59,13.93,20.53,14.66,16.13,13.2,19.79c-1.47,3.67-3.56,5.92-13.51,5.53s-17.28-11.39-17.28-11.39c0,0,.73,11.73-6.6,15.4-7.33,3.67-15.4-13.2-15.4-13.2,0,0-2.92,12.04-9.53,13.72-6.6,1.68-6.9-2.35-6.9-2.35l-2.63-8.43v-5.9s3.07-12.94,2.63-17.81l3.23-6.95s35.92-2.32,38.85-8.92Z"/>
  <path class="cls-17" d="M413.59,359.77s3.99,36.18-4.08,44.24l1.47,7.33s.73,6.11-38.85,8.92c0,0,8.8-15.52,5.86-21.38,0,0,30.88-21.77,35.6-39.11Z"/>
  <path class="cls-10" d="M159.65,393.27s56.26,68.44,110.18,0c0,0-31.83,48.35,4.81,45.67v13.11l-4.01,4.96s-86.28,30.27-114.45-3.3l-2.51-20.38s21.5-6.08,5.98-40.06Z"/>
  <path class="cls-17" d="M30.75,359.77s-8.31,34.71-1.71,47.17l-4.4,4.4s18.33,18.33,34.46,16.13l1.47-3.67-7.65-30.53s-21.17-18.36-22.16-33.5Z"/>
  <path class="cls-21" d="M38.99,241.7s-47.98,91.72,13.92,151.58c5.88,5.69,8.02,7.96,8.14,8.36.04.13-.14.06-.49-.16-2.01-1.31-9.5-7.76-9.5-7.76,0,0-5.28-21.76-.46-26.99,0,0-11.3-14.03-6.17-30.15,0,0-12.68-24.04,2.82-72.87,15.5-48.83,0,0,0,0l-8.27-22"/>
  <path class="cls-4" d="M55.32,277.28s-10.37,44.19,0,50.27c0,0-10.15,4.62-10.89,9.01,0,0-15.61-23.31,2.82-72.87,18.44-49.56,0,0,0,0l8.06,13.58"/>
  <path class="cls-11" d="M274.64,438.94v13.11l-4.01,4.96s-87.75,34.67-114.45-3.3l-2.51-20.38s6.38-4.15,10.89-13.07c0,0,59.38,39.19,92.06,11.47,0,0,7.77,9.89,18.03,7.21Z"/>
  <path class="cls-21" d="M274.64,452.06c-1.08.33,0-13.11,0-13.11,0,0,1.74-49.32,46.32-66.68,44.58-17.36,58.51-17.36,57.77,11.23-.73,28.59-1.52,25.41-1.52,25.41l-8.31,18.32s-.44,16.31-2.63,17.81-47.63-6.5-91.63,7.03Z"/>
  <path class="cls-4" d="M159.61,457.45s-4.13-7.14-20.12-7.97-42.67-1.56-48.95-2.3c-6.28-.73-23.54-4.48-30.61,1.43-7.06,5.9,0,0,0,0,0,0,3.14,9.55-6.28,21.29-9.42,11.74-11.77,19.07-3.14,20.54s21.19-2.93,29.04-7.33,13.34,11,13.34,11c0,0,15.7,13.2,24.33-8.8s27.18,6.75,27.18,6.75c0,0,30.9,11.58,26.97-8.21-3.92-19.79-11.77-26.39-11.77-26.39Z"/>
  <path class="cls-4" d="M273.16,453.86s3.86-7.14,18.79-7.97c14.93-.83,39.86-1.56,45.72-2.3,5.86-.73,21.99-4.48,28.59,1.43,6.6,5.9,0,0,0,0,0,0-2.93,9.55,5.87,21.29,8.8,11.74,11,19.07,2.93,20.54s-19.79-2.93-27.12-7.33-12.46,11-12.46,11c0,0-14.66,13.2-22.73-8.8-8.06-21.99-25.39,6.75-25.39,6.75,0,0-28.86,11.58-25.19-8.21,3.67-19.79,11-26.39,11-26.39Z"/>
  <path class="cls-4" d="M362.98,236.13s16.97,25.01,18.56,73.35c0,0,14.05,20.48,4.52,41.01,0,0,2.93,6.6,1.47,15.4-1.47,8.8,0,0,0,0,0,0,34.93-70-20.29-158.53-55.22-88.53,0,0,0,0l-4.25,28.77"/>
  <path class="cls-21" d="M156.18,453.71c.22.06-2.51-20.38-2.51-20.38,0,0,9.06-28.29-49.9-70.78,0,0-56.89-27.63-53.16,4.16,0,0-8.74,15.67,9.96,57.09,0,0-1.44,14.27,3.13,17.95l-3.75,6.86s63.2-4.21,96.24,5.1Z"/>
  <path class="cls-2" d="M24.64,411.34s-9.16,15.03-13.56,28.96c0,0-16.13,13.93-2.93,16.86s20.53-8.06,20.53-8.06c0,0-6.6,7.25,0,12.79s19.89-11.4,19.89-11.4c0,0,4.34,11.76,6.89,12.52l2.55.76s4.62-14.17,1.94-15.15l3.75-6.86s-3.49-8.05-3.13-17.95c0,0-12.83,8.43-35.92-12.46Z"/>
  <path class="cls-14" d="M50.6,366.72s-12.4-17.32-6.17-30.15,23.6-9.01,23.6-9.01c0,0,65.71,19.43,91.62,65.72,0,0,18.58,28.7-5.98,40.06,0,0,4.07-39-58.26-73.57,0,0-44.86-22.64-44.8,6.95Z"/>
  <path class="cls-9" d="M55.32,312.33s15.45,17.73,23.36,18.97c0,0-15.04-5.07-23.36-3.75,0,0-7.08-9.03,0-15.22Z"/>
  <path class="cls-19" d="M55.32,277.28h0s41.09,49.12,44.24,54.02,39.93,31.9,45,32.33l-14.2-3.47s-43.46-28.62-51.68-28.86c0,0-22.37-13.51-23.36-18.97,0,0-7.08,4.37,0,15.22,0,0-10.74-5.82,0-50.27"/>
  <path class="cls-4" d="M256.61,431.73s5.21,10.25,18.03,7.21c0,0,4.3-50.42,46.32-66.68,42.01-16.27,58.92-17.35,57.8,9.59-1.12,26.93-.02,1.64-.02,1.64,0,0,9.9-2.57,8.8-17.59,0,0,1.83-14.3-1.47-15.4-3.3-1.1-1.1-23.83-56.82,6.96,0,0-36.12,22.73-41.88,32.99,0,0-1.14-10.61,46.76-39.03,0,0,28.17-19.32,44.63-13.24,16.47,6.08,2.78-28.7,2.78-28.7,0,0-73.67,26.95-81.31,44.79,0,0-51,54.23-43.62,77.46Z"/>
  <path class="cls-4" d="M50.6,366.72s-10-30.08,14.82-24.44c24.83,5.65,61.48,21.77,72.48,38.64,11,16.86,19.79,48.38,15.76,52.42,0,0,10.42-8.18,10.89-13.07s12.64-29.49-55.02-73.27c-67.66-43.78-68.85-3.68-66.43-2.11,2.43,1.58-2.09,9.1,7.5,21.84Z"/>
  <path class="cls-14" d="M378.75,381.84s9.42-40.24-57.8-9.59c0,0-39.34,14.74-46.32,66.68,0,0,13.83-43.28,46.32-62.01,32.48-18.74,55.26-9.56,57.8,4.91Z"/>
  <path class="cls-14" d="M287.36,390.45s76.34-71.11,98.7-39.95c0,0,.42-11.06-7.3-12.31-7.72-1.25-17.77-4.53-46.47,14.34-28.7,18.87-25.96,13.74-44.93,37.93Z"/>
  <path class="cls-13" d="M381.54,309.48s17.35,18.65,4.52,41.01c0,0,.13-9.69-4.52-11.26-4.64-1.57-2.78-1.05-2.78-1.05,0,0,16.23,9.1,2.78-28.7Z"/>
  <path class="cls-19" d="M362.98,236.13s19.54,27.58,18.56,73.35c0,0-58.89,23.78-78.32,41.01l15.73-20.51s20.93-22.25,21.84-31.84c.92-9.6,0,0,0,0,0,0,21.48-46.98,22.19-62.01"/>
  <path class="cls-4" d="M73.62,91.15c.5-2.74,35.69-76.05,100.94-78.98,65.25-2.93,96.77,10.26,134.89,43.25l17.99,54.84s10.23,24.48,16.28,25.51,33.91,94.13-12.28,158.64c-46.19,64.51-74.05,56.08-74.05,56.08,0,0-116.24,56.19-178.71-73.99,0,0-39.74-55.4-15.55-114.05l10.26-30.01.23-41.29Z"/>
  <path class="cls-15" d="M73.39,77.42c-.73,0-39.59,2.2-39.59,2.2,0,0-19.79,7.33-17.59,24.93,2.2,17.59,16.13,25.66,16.13,25.66,0,0,35.19,9.53,39.59,3.67s1.47-1.42,1.47-1.42v-55.02Z"/>
  <path class="cls-26" d="M85.38,84.33s7.86-10.84,13.33,2.49c5.47,13.33,10.66,40.78,0,50.51-10.66,9.73-7.45-11.02-14.55-15.31s-2.18-36.65,1.22-37.69Z"/>
  <path class="cls-1" d="M85.85,100.88c.33-.66,5.13-15.4,13.2,2.2,0,0,3.67,21.99-2.93,22.73s-12.46-20.53-10.26-24.93Z"/>
  <path class="cls-29" d="M282.32,84.01c.12-.72,3.67-21.99,13.93-8.8,0,0,2.93,20.53-2.93,26.39-5.86,5.86-11.73-13.2-11-17.59Z"/>
  <path class="cls-21" d="M305.05,143.25s16.13,30,8.06,54.87c-8.06,24.88-41.79,29.26-41.79,29.26l-48.38-5.12s-19.79-3.66-37.02,5.12c-17.23,8.78-37.76,23.41-65.62,23.41s-38.12-27.8-38.12-27.8c0,0-8.8-34.39,1.47-51.21s33.72-69.5,37.39-73.89,15.08-24.14,39.79-20.49c24.72,3.66,56.97-8.05,56.97-8.05,0,0,35.85-5.1,59.34,33.3,23.5,38.4,27.89,40.59,27.89,40.59Z"/>
  <path class="cls-24" d="M250.44,102.72c1.9,4.01-8.43-13.57-24.56-11.37s-16.82,15.25-16.82,15.25c0,0-1.51,11.88,9.49,12.61s19.06-5.13,15.4-10.26-7.72-10.94-4.23-10.6,17.43-2.57,20.72,4.38Z"/>
  <path class="cls-24" d="M159.9,111.87s8.4,8.1,4.2,13.95c-4.2,5.85-7.13,9.51-18.86,7.31s-1.47-16.86-1.47-16.86c0,0-8.8,1.47-14.66,12.46,0,0,11-24.93,30.79-16.86Z"/>
  <path class="cls-30" d="M99.05,103.07s-2.2-13.93-11-13.93-2.41,14.66-2.67,13.93,4.87-18.33,13.67,0Z"/>
  <path class="cls-18" d="M278.66,74.48s-2.2-28.21,18.33-12.64c0,0,6.06,3.3,3.03,15.3-3.03,12-3.09,6.2-3.09,6.2l-.68-8.13s-9.53-13.2-13.93,8.8c0,0-2.2-5.86-3.67-9.53Z"/>
  <path class="cls-27" d="M296.25,65.7s-7.87-2.92-12,12.22c0,0,3.2-13,12-2.06l.44,5.59s3.23-13.4-.44-15.75Z"/>
  <path class="cls-26" d="M278.66,74.48s-3.47,20.42,5.6,31.84,17.13,10.68,18.59,6.28,7.16-21.99-2.28-38.12l-2.56,10.27s-6.15,41.05-15.68-.74l-3.67-9.53Z"/>
  <path class="cls-15" d="M309.45,55.42c1.47,0,35.92,4.4,35.92,4.4,0,0,16.19-5.24,20.19,13.14,0,0,8.4,3.72,6.2,10.32-2.2,6.6-3.03,19.78-11.41,26.75-8.38,6.97-32.91.23-32.91.23l-17.99-54.84Z"/>
  <path class="cls-8" d="M326.46,81.19s10.91-1.69,15.64-8.23c4.73-6.55,17.99-13.98,23.46,0,5.47,13.98,1.68,26.84,1.68,26.84,0,0-3.48,22.79-39.8,10.46l-8.52-25.96,7.54-3.11Z"/>
  <path class="cls-3" d="M63.52,105.21s-12.81-8.38-18.33-14.06-19.64-9.29-24.68,8.65c-5.04,17.93,13.37,30.8,13.37,30.8,0,0,38.04,9.21,39.5,1.84s-4.34-28.76-9.87-27.23Z"/>
  <path class="cls-16" d="M55.32,134.59s-36.18,46.2-14.18,114.38c21.99,68.18,124.14,113.6,124.14,113.6,0,0,52.38,24.39,132.73-20.78,80.36-45.17,70.51-181.64,70.51-181.64l-13.16-46.22-27.91-3.66s8.03,24.48,16.28,25.51,55.15,152.04-86.33,214.72C115.91,413.18,48.49,229.92,55.44,207.55c0,0,3.29-23.84,16.48-73.69l-16.61.72Z"/>
  <path class="cls-25" d="M169.98,236.35s6.05,8.22,3.11,29.48c-2.93,21.26,35.9,27.95,35.9,27.95,0,0,34.48,7.23,49.14-22.82,0,0,2.97-19.37-8.78-34.61,0,0-3.8-9.57,7.26-10.21s-72.15-14.14-86.63,10.21Z"/>
  <path class="cls-7" d="M183.36,317.14s38.64,23.46,69.91,0c31.26-23.46,31.26-46.19,31.26-46.19,0,0,35.19,14.66,14.66,41.79s-36.09,38.83-54.7,42.87c-18.61,4.05-46.47,12.11-90.45-17.21-43.99-29.32-13.2-47.65-13.2-47.65,0,0,13.2,18.33,42.52,26.39Z"/>
  <path class="cls-20" d="M256.16,249.65s20.3,25.7,28.36,21.3c0,0-31.52,112.9-143.69,19.79,0,0,34.17,10.41,32.48-26.68,0,0-.09,17.43,21.47,25.73s50.88,6.82,63.35-18.83c0,0,.46-15.48-1.97-21.3Z"/>
  <path class="cls-5" d="M184.22,228.59s-4.53,30.64-2.33,33.57,11.73,24.19,27.12,21.99c15.4-2.2,35.92-8.06,37.39-18.33,1.47-10.26,2.95-29.48,2.95-29.48,0,0-1.6-10.3,7.26-10.21,0,0-57.6-10.6-72.39,2.45Z"/>
  <path class="cls-22" d="M100.06,106.59c-.28-.59,1.58-9.3,1.02-13.01s-8.47-26.43-18.08-4.44l.38,3.99s10.02-14.55,16.14,13.46h.54Z"/>
  <path class="cls-12" d="M234.78,110.91s4.29,14.89-18.44,38.35-55.82,2.02-67.13-15.48c0,0,11.89,3.53,16.05-11.76,4.16-15.28,7.81-27.23,18.81-24.92s14.25.87,17.39-.98c3.15-1.85,9.94,3.68,9.94,3.68,0,0-6.07,13.07,1.27,17.33,7.33,4.27,23.68.15,22.1-6.23Z"/>
  <path class="cls-23" d="M290.39,73.75s-3.67-2.2-2.93,1.47,3.67,6.6,4.4,5.86.73-6.6-1.47-7.33Z"/>
  <path class="cls-23" d="M92.72,97.28s-2.47,1.4-1,4.33,3.67-2.2,3.67-2.93-1.66-2.06-2.66-1.4Z"/>
  <path class="cls-10" d="M271.33,227.7l16.03-4.53s-14.2,15.16-2.84,47.78c0,0-10.9,6.15-28.36-21.3-17.46-27.45.45-23.51.45-23.51l14.72,1.56Z"/>
  <path class="cls-10" d="M169.98,236.13s15.84,25.12-1.34,48.14c-17.17,23.02-25.24,3.89-27.8,6.46s8.46-39.44-5.12-41.24c0,0,24.18-4.31,34.26-13.36Z"/>
  <path class="cls-28" d="M81.68,76.03l-8.28,1.38s-1.1,56.9,0,55.02,8.28-56.41,8.28-56.41Z"/>
  <g>
    <path class="cls-6" d="M128.34,25.37s-5.61-4.24,6.61-14.93S217.4-.53,234.34,6.57c16.94,7.1,23.36,14.73,23.36,14.73,0,0-12.77,29.76-34.52,7.4-21.75-22.36-47.31,12.31-47.31,12.31,0,0-29.08,3.46-27.42-19.64,0,0,3.88-6.23-18.86,7.33l-1.25-3.33Z"/>
    <path class="cls-6" d="M276.7,165.32s-28.85,14.56-26.77-9.89c2.08-24.45-7.17-25.15-11.34-13.44-4.17,11.71,17.28,39.15-7.38,33.13-24.65-6.02-26.41,21.33-9.77,19.02s27.26-2.56,31.48,8.56c4.22,11.12,30.14.92,23.78-13.77s14.32-11.85,14.32-11.85c0,0,25.76-22.87-14.32-11.76Z"/>
    <path class="cls-6" d="M107.68,465.19c-2.74-25.7-41.19,15.54-47.4,5.98-6.21-9.56-15.89,9.33-15.89,9.33,0,0,.05,12.59,20.26,7.11,20.21-5.48,13.25-5.16,32.13,7.88,18.87,13.03,25.32-15.76,25.32-15.76,0,0,4.81-4.6,21.54,11s35.87,6.59,25.57-14.2c-10.3-20.78-29.63-8.43-34.26-6.91s-25.72,10.16-27.27-4.42Z"/>
    <path class="cls-6" d="M257.7,477.75c2.42,24.8,31.16,15.36,31.16,15.36,0,0,11.25-26.34,13.59-15.36,2.35,10.98,24.01,28.34,30.04,21.13s21.13-15.31,33.01-5.76c11.88,9.54,15.27-15.36,15.27-15.36l-6.14-8.14s-16.54-10.88-21.93,1.55c-5.39,12.43-23.16-4.59-38.1-10.37-14.94-5.79-23.1,11.87-31.12,10.37-8.02-1.5-27.43-10.26-25.79,6.58Z"/>
    <path class="cls-6" d="M10.31,438.97s2.42-16.94,13.56-4.12c11.14,12.82,16.07-6.17,27.53-.34l11.47,5.83-5.64,22.08s-1.78-8.64-9.43-7.3c-7.65,1.34-21.12,20.65-22.82,0,0,0-34.33,13.86-21.68-7.8,12.65-21.65,7.01-8.37,7.01-8.37Z"/>
    <path class="cls-6" d="M424.14,430.54s12.32,6.32,13.2,19.79-30.2,7.06-30.79-5.86c0,0-2.35,36.38-21.99,2.2,0,0-17.74,35.57-19.06-2.97,0,0,3.45-10.65,27.09-6.63s17.77-7.53,17.77-7.53c0,0,12.18-12.46,13.79,1.01Z"/>
    <g>
      <path class="cls-6" d="M390.93,210.53s14.64,4.8,23.65,25.6,11.72,50.13,4.5,64.79c-7.22,14.66-29.57,47.02-25.73,15.81,3.85-31.21-5.98-35.12-21.22-28.4-15.25,6.72-6.76-26.7,12.46-30.15s-21.92-43.47,6.35-47.65Z"/>
      <path class="cls-6" d="M50.6,366.72s24.09-22.51,29.92-7.5c5.84,15.01-2.52,30.15,14.86,25.14s10.2,46.54-21.04,22.6c-31.24-23.94-23.29-13.26-23.29-13.26l-.46-26.99Z"/>
      <path class="cls-6" d="M54.98,210.53c3.84-54.37,22.3,25.05,22.3,25.05,0,0,10.57,41.45,35.85,22.61s1.4,33.7-11.95,26.12c-13.36-7.58,5.25,42.02,23.07,43.24,0,0-36.23,5.62-51.36-48.99-15.13-54.62-19.98-38.92-17.92-68.03Z"/>
      <path class="cls-6" d="M336.71,55.42c3.04-35.27,44.8,25.02,35.05,27.86s-36.89-6.51-35.05-27.86Z"/>
    </g>
  </g>
</svg>