<?xml version="1.0" encoding="UTF-8"?>
<svg id="Layer_3" xmlns="http://www.w3.org/2000/svg" viewBox="0 0 438.72 502.12">
  <defs>
    <style>
      .cls-1 {
        fill: #746460;
      }

      .cls-1, .cls-2, .cls-3, .cls-4, .cls-5, .cls-6, .cls-7, .cls-8, .cls-9, .cls-10, .cls-11, .cls-12, .cls-13, .cls-14, .cls-15, .cls-16, .cls-17, .cls-18, .cls-19 {
        stroke: #000;
        stroke-miterlimit: 10;
      }

      .cls-2 {
        fill: #9a8381;
      }

      .cls-3 {
        fill: #9b8580;
      }

      .cls-4 {
        fill: #978583;
      }

      .cls-6 {
        fill: #7a484b;
      }

      .cls-7 {
        fill: #3d2426;
      }

      .cls-8 {
        fill: #a6a7ac;
      }

      .cls-9 {
        fill: #c3b6b3;
      }

      .cls-10 {
        fill: #272120;
      }

      .cls-20, .cls-11 {
        fill: #645a5b;
      }

      .cls-12 {
        fill: #ca9891;
      }

      .cls-13 {
        fill: #413e3e;
      }

      .cls-14 {
        fill: #cdcbce;
      }

      .cls-15 {
        fill: #ad8e8a;
      }

      .cls-16 {
        fill: #e69cab;
      }

      .cls-17 {
        fill: #575352;
      }

      .cls-21, .cls-19 {
        fill: #514540;
      }

      .cls-18 {
        fill: #24242d;
      }
    </style>
  </defs>
  <path class="cls-17" d="M349.16,168.24s41.72,46.03,43.62,146.92c0,0,.71,18.3-4.71,38.14s-30.73,40.17-30.73,40.17l.63-15.81s7.59-3.01,7.59-18.07c0,0,27.62-74.16-17.52-162.82-45.13-88.67,0,0,0,0l1.11-28.53"/>
  <path class="cls-16" d="M159.64,431.64s20.23,27.05,110.15,2.92l3.85-4.38v-11.58s-38.99,6.58-2.57-43.19l47.14-54.68s-53.65,65.64-169.76,31.39c-116.12-34.24,0,0,0,0,0,0-15.8-9.65-28.57-16.45-12.77-6.79,0,0,0,0,0,0,77.54,54.03,37.33,77.97l2.42,17.99Z"/>
  <path class="cls-16" d="M95.23,294.51s30.82,49.26,66.89,64.7c36.07,15.43,92.64,10.17,108.89,0,16.25-10.17,60.46-46.93,62.26-69.21,1.8-22.28-238.04,4.51-238.04,4.51Z"/>
  <path class="cls-1" d="M385.82,406.27s11.39,18.07,12.02,21.08,12.66,16.57,11.39,20.33c-1.27,3.76-3.07,6.08-11.66,5.68-8.59-.41-14.92-11.7-14.92-11.7,0,0,.63,12.05-5.7,15.81-6.33,3.76-13.29-13.55-13.29-13.55,0,0-2.52,12.37-8.22,14.09-5.7,1.72-5.96-2.42-5.96-2.42l-2.27-8.66v-6.06s2.65-13.29,2.27-18.29l2.79-7.14s31.01-2.39,33.54-9.16Z"/>
  <path class="cls-13" d="M388.07,353.3s3.44,37.16-3.52,45.44l1.27,7.53s.63,6.28-33.54,9.16c0,0,7.59-15.94,5.06-21.96,0,0,26.66-22.36,30.73-40.17Z"/>
  <path class="cls-6" d="M168.86,387.71s48.56,49.67,95.11,0c0,0-27.48,35.09,4.15,33.15v9.52l-3.46,3.6s-74.48,21.97-98.8-2.4l-2.17-14.79s18.56-4.41,5.17-29.08Z"/>
  <path class="cls-13" d="M57.6,353.3s-7.18,35.65-1.48,48.45l-3.8,4.52s15.82,18.82,29.74,16.57l1.27-3.76-6.61-31.36s-18.28-18.86-19.13-34.41Z"/>
  <path class="cls-17" d="M64.71,232.03s-41.42,94.21,12.01,155.69c5.08,5.84,6.92,8.17,7.03,8.59.03.14-.12.06-.42-.17-1.73-1.34-8.2-7.97-8.2-7.97,0,0-4.56-22.35-.4-27.72,0,0-9.76-14.41-5.33-30.97,0,0-10.95-24.69,2.44-74.84,13.38-50.15,0,0,0,0l-7.14-22.6"/>
  <path class="cls-3" d="M78.8,268.58s-8.96,45.38,0,51.63c0,0-8.76,4.74-9.4,9.26,0,0-13.48-23.94,2.44-74.84,15.92-50.9,0,0,0,0l6.96,13.95"/>
  <path class="cls-7" d="M268.12,426.06v7.46l-3.46,2.82s-75.75,19.72-98.8-1.88l-2.17-11.59s5.51-2.36,9.4-7.44c0,0,51.26,22.3,79.46,6.53,0,0,6.71,5.62,15.56,4.1Z"/>
  <path class="cls-17" d="M268.12,448.09c-.93.34,0-13.47,0-13.47,0,0,1.5-50.66,39.98-68.49,38.48-17.84,50.5-17.84,49.87,11.53-.63,29.37-1.31,26.1-1.31,26.1l-7.17,18.81s-.38,16.75-2.27,18.29-41.12-6.68-79.09,7.22Z"/>
  <path class="cls-3" d="M168.83,453.62s-3.56-7.33-17.36-8.18c-13.8-.85-36.83-1.6-42.25-2.36-5.42-.75-20.32-4.6-26.42,1.47-6.1,6.06,0,0,0,0,0,0,2.71,9.8-5.42,21.86-8.13,12.06-10.16,19.59-2.71,21.1s18.29-3.01,25.07-7.53c6.77-4.52,11.52,11.29,11.52,11.29,0,0,13.55,13.55,21-9.04,7.45-22.59,23.46,6.93,23.46,6.93,0,0,26.67,11.89,23.28-8.44-3.39-20.33-10.16-27.11-10.16-27.11Z"/>
  <path class="cls-3" d="M266.85,449.94s3.33-7.33,16.22-8.18c12.89-.85,34.41-1.6,39.47-2.36,5.06-.75,18.98-4.6,24.68,1.47s0,0,0,0c0,0-2.53,9.8,5.06,21.86,7.59,12.06,9.49,19.59,2.53,21.1-6.96,1.51-17.09-3.01-23.41-7.53s-10.76,11.29-10.76,11.29c0,0-12.66,13.55-19.62-9.04-6.96-22.59-21.92,6.93-21.92,6.93,0,0-24.91,11.89-21.75-8.44,3.16-20.33,9.49-27.11,9.49-27.11Z"/>
  <path class="cls-3" d="M344.39,226.31s14.65,25.69,16.02,75.34c0,0,12.13,21.04,3.9,42.12,0,0,2.53,6.78,1.27,15.81-1.27,9.04,0,0,0,0,0,0,30.15-71.9-17.52-162.82-47.67-90.93,0,0,0,0l-3.67,29.55"/>
  <path class="cls-17" d="M165.87,449.79c.19.06-2.17-20.93-2.17-20.93,0,0,7.82-29.06-43.08-72.69,0,0-49.1-28.38-45.89,4.27,0,0-7.54,16.09,8.6,58.63,0,0-1.25,14.66,2.7,18.44l-3.24,7.04s54.55-4.32,83.08,5.24Z"/>
  <path class="cls-1" d="M52.32,406.27s-7.91,15.44-11.71,29.74c0,0-13.92,14.31-2.53,17.32,11.39,3.01,17.72-8.28,17.72-8.28,0,0-5.7,7.45,0,13.14s17.17-11.71,17.17-11.71c0,0,3.75,12.07,5.94,12.86l2.2.78s3.99-14.55,1.68-15.56l3.24-7.04s-3.02-8.27-2.7-18.44c0,0-11.07,8.66-31.01-12.8Z"/>
  <path class="cls-10" d="M74.73,360.44s-10.71-17.79-5.33-30.97c5.38-13.18,20.37-9.26,20.37-9.26,0,0,56.72,19.95,79.09,67.5,0,0,16.03,29.48-5.17,41.15,0,0,3.51-40.05-50.29-75.56,0,0-38.72-23.26-38.67,7.14Z"/>
  <path class="cls-5" d="M78.8,304.58s13.34,18.22,20.17,19.48c0,0-12.98-5.2-20.17-3.85,0,0-6.11-9.27,0-15.63Z"/>
  <path class="cls-15" d="M78.8,268.58h0s35.47,50.45,38.19,55.48,34.47,32.77,38.85,33.21l-12.26-3.57s-37.52-29.4-44.61-29.64c0,0-19.31-13.87-20.17-19.48,0,0-6.11,4.49,0,15.63,0,0-9.27-5.97,0-51.63"/>
  <path class="cls-3" d="M252.56,427.21s4.5,10.53,15.56,7.41c0,0,3.71-51.79,39.98-68.49s50.86-17.82,49.89,9.84c-.97,27.66-.02,1.69-.02,1.69,0,0,8.54-2.64,7.59-18.07,0,0,1.58-14.68-1.27-15.81s-.95-24.47-49.04,7.15c0,0-31.18,23.34-36.15,33.88,0,0-.99-10.89,40.37-40.08,0,0,24.31-19.84,38.53-13.6,14.22,6.25,2.4-29.48,2.4-29.48,0,0-63.6,27.68-70.19,46.01,0,0-44.03,55.7-37.65,79.55Z"/>
  <path class="cls-3" d="M74.73,360.44s-8.64-30.9,12.79-25.1c21.43,5.8,53.07,22.36,62.56,39.68s17.09,49.7,13.61,53.84c0,0,8.99-8.41,9.4-13.43.41-5.02,10.91-30.29-47.5-75.26-58.41-44.97-59.43-3.78-57.34-2.16s-1.81,9.35,6.47,22.43Z"/>
  <path class="cls-10" d="M358,375.97s8.13-41.33-49.89-9.84c0,0-33.96,15.14-39.98,68.49,0,0,11.94-44.45,39.98-63.69,28.04-19.24,47.7-9.81,49.89,5.05Z"/>
  <path class="cls-10" d="M279.11,384.81s65.9-73.04,85.2-41.04c0,0,.36-11.36-6.3-12.65-6.67-1.28-15.34-4.66-40.11,14.72-24.77,19.38-22.41,14.11-38.78,38.96Z"/>
  <path class="cls-9" d="M360.4,301.65s14.98,19.16,3.9,42.12c0,0,.11-9.96-3.9-11.57-4.01-1.61-2.4-1.08-2.4-1.08,0,0,14.01,9.34,2.4-29.48Z"/>
  <path class="cls-15" d="M344.39,226.31s16.86,28.32,16.02,75.34c0,0-50.84,24.43-67.61,42.12l13.58-21.06s18.06-22.85,18.85-32.71c.79-9.86,0,0,0,0,0,0,18.54-48.26,19.16-63.69"/>
  <path class="cls-12" d="M71.73,129.15s-32.93,44.78-12.91,110.86c20.02,66.08,112.99,110.1,112.99,110.1,0,0,47.67,23.64,120.81-20.14,73.14-43.78,64.18-176.05,64.18-176.05l-11.98-44.8-25.41-3.54s7.31,23.73,14.82,24.72,50.19,147.36-78.58,208.11c-128.77,60.75-190.14-116.86-183.81-138.54,0,0,2.99-23.1,15-71.42l-15.11.7Z"/>
  <path class="cls-11" d="M78.66,75.06c-.68.2-36.08,12.74-36.08,12.74,0,0-16.37,12.17-9.6,27.95s21.84,19.53,21.84,19.53c0,0,35.16-.63,37.66-7.28s.98-1.72.98-1.72l-14.79-51.22Z"/>
  <path class="cls-2" d="M77,103.6s-14.12-4.34-20.76-8.13c-6.64-3.79-20.69-3.34-20.54,14.72s20.67,25.06,20.67,25.06c0,0,37.71-1.7,37.09-8.96s-11.75-25.6-16.46-22.68Z"/>
  <path class="cls-11" d="M306.18,51.05c1.38.29,33.04,11.33,33.04,11.33,0,0,16.32-1.74,16.46,16.49,0,0,7.19,5.2,3.81,11.02-3.38,5.82-6.78,18.16-16.08,23.1-9.29,4.94-31.11-6.33-31.11-6.33l-6.12-55.6Z"/>
  <path class="cls-4" d="M317.13,78.89s10.63.57,16.4-4.69c5.77-5.27,19.76-9.68,22.15,4.67,2.39,14.35-3.74,25.79-3.74,25.79,0,0-7.8,20.92-39.64,2l-2.89-26.32,7.73-1.45Z"/>
  <path class="cls-3" d="M77.91,87.06c.49-2.66,34.43-73.71,97.37-76.55s93.35,9.95,130.12,41.92l17.36,53.15s9.87,23.73,15.7,24.72c5.83.99,32.71,91.23-11.85,153.76-44.55,62.53-71.43,54.36-71.43,54.36,0,0-112.13,54.46-172.39-71.71,0,0-38.34-53.7-15-110.54l9.9-29.09.22-40.02Z"/>
  <path class="cls-19" d="M89.25,80.44s7.59-10.51,12.86,2.41c5.27,12.92,10.28,39.53,0,48.96s-7.19-10.68-14.04-14.84-2.1-35.52,1.18-36.53Z"/>
  <path class="cls-17" d="M301.21,176.33s14.81,24,7.41,43.89c-7.41,19.9-38.37,23.41-38.37,23.41l-44.43-4.1s-18.17-2.93-33.99,4.1c-15.82,7.02-34.67,18.73-60.26,18.73s-35.01-22.24-35.01-22.24c0,0-8.08-27.51,1.35-40.97,9.43-13.46,30.97-55.6,34.33-59.11s13.85-19.31,36.55-16.39c22.7,2.93,52.32-6.44,52.32-6.44,0,0,32.92-4.08,54.5,26.64,21.58,30.72,25.62,32.47,25.62,32.47Z"/>
  <path class="cls-18" d="M251.06,143.91c1.75,3.21-7.75-10.86-22.56-9.1s-15.44,12.2-15.44,12.2c0,0-1.39,9.5,8.71,10.09s17.5-4.11,14.14-8.21c-3.37-4.11-7.09-8.75-3.88-8.48s16.01-2.06,19.03,3.5Z"/>
  <path class="cls-18" d="M167.91,151.23s7.71,6.48,3.86,11.16c-3.86,4.68-6.55,7.61-17.32,5.85s-1.35-13.49-1.35-13.49c0,0-8.08,1.17-13.46,9.97,0,0,10.1-19.94,28.28-13.49Z"/>
  <path class="cls-19" d="M275.69,70.9s-3.34,19.79,5.4,30.86c8.74,11.06,16.52,10.35,17.94,6.09s6.91-21.32-2.2-36.95l-2.47,9.95s-5.93,39.79-15.12-.71l-3.54-9.24Z"/>
  <path class="cls-21" d="M275.39,81.67c.18-.79,5.44-23.88,20.66-9.55,0,0,4.35,22.29-4.35,28.66-8.7,6.37-17.39-14.33-16.31-19.11Z"/>
  <path class="cls-8" d="M236.68,150.46s3.94,11.91-16.93,30.68c-20.87,18.77-51.26,1.62-61.65-12.39,0,0,10.92,2.82,14.74-9.4,3.82-12.22,7.17-21.78,17.28-19.94,10.11,1.85,13.08.7,15.97-.78,2.89-1.48,9.13,2.94,9.13,2.94,0,0-5.57,10.45,1.16,13.87,6.73,3.41,21.75.12,20.3-4.98Z"/>
  <path class="cls-20" d="M85.68,72.4l-7.99,1.34s-1.06,55.15,0,53.33,7.99-54.67,7.99-54.67Z"/>
  <path class="cls-17" d="M151.5,259.98s24.47,13.69,38.56,8.6,30.16-12.12,49.98-8.6c19.83,3.51,30.2-16.34,30.2-16.34,0,0-31.33-16.01-60.01-11.63-28.68,4.38-58.74,27.97-58.74,27.97Z"/>
  <path class="cls-18" d="M107.63,105.17s-18.43,13.88-22.7-8.4l22.7,8.4Z"/>
  <path class="cls-14" d="M84.93,96.77s7.88-53.17,22.7,8.4c0,0-19.56,2.96-22.7-8.4Z"/>
  <path class="cls-18" d="M300.5,79.65s-7.99,20.54-25.44,5.05l25.44-5.05Z"/>
  <path class="cls-14" d="M275.06,84.71s-.18-66.91,25.44-5.05c0,0-11,9.99-25.44,5.05Z"/>
</svg>